# xmcd CD database file
#
# Track frame offsets:
#	150
#	15450
#	29999
#	41808
#	53572
#	67650
#	81255
#	94682
#	108300
#	121275
#	134661
#	148787
#	162753
#	175715
#	186380
#	200064
#
# Disc length: 2841 seconds
#
# Revision: 0
# Processed by: cddbd v1.5.2PL0 Copyright (c) Steve Scherf et al.
# Submitted via: CDex 1.51
#
DISCID=e20b1710
DTITLE=Various Artist - Jazz - The Essential Collection disc 9
DYEAR=1900
DGENRE=Jazz
TTITLE0=Jimmy Dorsey and His Orchestra (feat. Bob Eberly and Helen O'Connell) - Amapola
TTITLE1=Peggy Lee (feat. Benny Goodman and His Orchestra) - Why Don't You Do Right
TTITLE2=Ella Mae Morse - Milkman, Keep Those Bottles Quiet
TTITLE3=Charlie Barnet and His Orchestra - Redskin Rhumba
TTITLE4=Artie Shaw - Ac-cent-tchu-ate The Positive
TTITLE5=Freddie Slack and His Orchestra - Riffette
TTITLE6=Benny Goodman and His Orchestra (feat. Helen Forrest) - How High The Moon
TTITLE7=The Ink Spots - Java Jive
TTITLE8=Harry James - Strictly Instrumental
TTITLE9=Ella Mae Morse - Buzz Me
TTITLE10=Johnny Mercer - I Lost My Sugar In Salt Lake City
TTITLE11=Stan Kenton and His Orchestra (feat. Anita O'Day) - And Her Tears Flowed Like Wine
TTITLE12=Duke Ellington and His Famous Orchestra - Bojangles
TTITLE13=Jimmy Dorsey and His Orchestra - Manhattan Serenade
TTITLE14=Ella Fitzgerald - Starlit Hour
TTITLE15=Nat 'King' Cole Trio - Gee Baby, Ain't I Good To You
EXTD=
EXTT0=
EXTT1=
EXTT2=
EXTT3=
EXTT4=
EXTT5=
EXTT6=
EXTT7=
EXTT8=
EXTT9=
EXTT10=
EXTT11=
EXTT12=
EXTT13=
EXTT14=
EXTT15=
PLAYORDER=
